<?xml version="1.0" encoding="utf-8"?>
<!DOCTYPE svg PUBLIC "-//W3C//DTD SVG 1.1//EN" "http://www.w3.org/Graphics/SVG/1.1/DTD/svg11.dtd">
<svg version="1.1" id="Layer_1" xmlns="http://www.w3.org/2000/svg" xmlns:xlink="http://www.w3.org/1999/xlink" x="0px" y="0px"
	 width="424.499" height="490.169" viewBox="0 0 424.499 490.169" enable-background="new 0 0 424.499 490.169"
	 xml:space="preserve">
 <g>
  <title>Layer 2</title>
  <polygon id="svg_2" points="424.4989929199219,368.6289978027344 212.2480010986328,491.16900634765625 0,368.6289978027344 0,123.54299926757812 212.2480010986328,1 424.4989929199219,123.54299926757812 " fill="#585858"/>
 </g>
 <g>
  <title>Layer 1</title>
  <g id="svg_1" stroke="null">
   <path fill="#FFFFFF" d="m132.11752,201.84785c15.01454,-4.90393 23.34676,-21.5135 18.63351,-37.11257c-3.82699,-12.63727 -15.06875,-20.72341 -27.17375,-20.72341c-2.82145,0 -5.69711,0.44293 -8.54024,1.37034c-15.00505,4.90252 -23.3366,21.52407 -18.61318,37.1168c3.80462,12.63727 15.03689,20.72411 27.13038,20.72411c2.83364,0 5.72015,-0.44364 8.56328,-1.37527l0.00001,0l-0.00001,0z" id="svg_3" stroke="null"/>
   <path fill="#FFFFFF" d="m147.62466,205.45608c0,0 -26.96166,8.97975 -27.36347,9.13044c-10.13933,3.80822 -17.50804,12.78515 -19.23316,23.93519l-10.02821,64.69473c-1.22439,7.93262 3.96995,15.39908 11.59139,16.67224c0.75415,0.13098 1.50897,0.18731 2.25296,0.18731c6.74669,0 12.68501,-5.08561 13.80031,-12.23448l2.05782,-13.27878l2.46504,24.17039l2.51993,24.69712c0.20802,2.00058 1.25759,3.80189 2.87566,4.90464c1.61806,1.10134 3.63049,1.39147 5.47961,0.79009l8.91698,-2.91461l8.45419,27.92228l-43.267,0c-1.21355,0 -2.20891,-1.02811 -2.20891,-2.29564l0,-43.12911c-0.36454,0.01831 -0.71552,0.10211 -1.08277,0.10211c-1.19186,0 -2.38441,-0.10211 -3.59796,-0.30139c-8.64255,-1.44921 -15.24559,-7.89953 -17.71606,-16.0251l0,59.3542c0,14.09845 11.03375,25.57101 24.60435,25.57101l46.31272,0l0,-13.21822l0,-41.73906l0,-108.73153l0,-29.4588c-1.81388,0.13732 -3.62709,0.45631 -5.43082,0.94924c-0.46414,0.12746 -0.93913,0.09436 -1.4026,0.24576l0,-0.00003z" id="svg_4" stroke="null"/>
   <path d="m271.85591,95.07535l-154.71973,0l-8.98948,0c-13.5889,0 -24.60435,11.44861 -24.60435,25.57101l0,175.82259l9.19682,-59.33237c1.49001,-9.65013 6.27306,-18.07005 13.19862,-24.05842l0,-2.52661c-9.45024,-4.86098 -16.87315,-13.53511 -20.19804,-24.55769c-3.18192,-10.50712 -2.2306,-21.67265 2.65748,-31.44108c3.92456,-7.82488 10.07429,-13.88931 17.54056,-17.73697l0,-16.17016c0,-1.2626 0.9947,-2.29564 2.20891,-2.29564l8.98948,0l42.73644,0l57.09712,0l-40.54108,8.42626c-6.26628,1.30133 -10.77084,7.01789 -10.77084,13.66045l0,285.79842c0,4.1751 1.80372,8.1312 4.90976,10.7726c3.10604,2.64914 7.18508,3.71105 11.12048,2.88786l141.16741,-29.33839c6.26763,-1.30133 10.77152,-7.01789 10.77152,-13.66045l0,-290.62771c0,-6.22991 -4.86436,-11.2775 -10.85825,-11.26905l-50.91282,0.07535l-0.00001,0zm-77.94224,205.35674c-6.05826,0 -10.96869,-5.10392 -10.96869,-11.39369c0,-6.2961 4.91043,-11.39861 10.96869,-11.39861c6.05961,0 10.96869,5.10251 10.96869,11.39861c0,6.28977 -4.9084,11.39369 -10.96869,11.39369zm85.86724,-117.97887c0,3.30121 -2.2428,6.14189 -5.36984,6.78481l-43.21753,8.89947c-1.95821,0.40209 -3.98011,-0.12605 -5.52162,-1.44498c-1.53066,-1.3126 -2.42777,-3.27234 -2.42777,-5.34616l0,-12.04646c0,-3.30121 2.24212,-6.14259 5.36915,-6.78481l43.21686,-8.89947c1.95889,-0.40279 3.98079,0.12534 5.52229,1.44428c1.53066,1.3126 2.42845,3.27234 2.42845,5.34616l0,12.04717l0.00001,-0.00001z" fill="#FFFFFF" id="svg_5" stroke="null"/>
  </g>
 </g>
</svg>
